<svg class="mainlogo" viewBox="0 0 279 80" xmlns="http://www.w3.org/2000/svg" xmlns:xlink="http://www.w3.org/1999/xlink"><defs><path id="a" d="M0 0h278.697v80H0z"></path></defs><g fill="none" fill-rule="evenodd"><mask id="b" fill="#fff"><use xlink:href="#a"></use></mask><path d="M239.667 57.822a6.94 6.94 0 01-.76 0 4.792 4.792 0 00-.338-.012l-15.446-.026 2.293-8.006c2.43 3.468 6.705 5.88 11.685 6.156.077.005.155.007.235.007h2.898l-.567 1.881zm37.756-55.69c-.798-.973-2.302-2.131-4.934-2.131-.854 0-1.655.121-2.394.346a4.215 4.215 0 00-1.101-.151h-4.34a4.19 4.19 0 00-.746.067 4.097 4.097 0 00-.711-.068h-1.545c-.36 0-.71.045-1.044.13a4.258 4.258 0 00-1.046-.13h-1.6c-.562 0-1.096.12-1.593.321a7.619 7.619 0 00-2.241-.32h-2.921c-.47 0-.921.084-1.346.226a4.192 4.192 0 00-1.355-.226h-2.08a4.21 4.21 0 00-1.917.468c-.757-.374-1.72-.644-2.935-.664-5.921 0-7.138 5.02-7.596 6.91a264.23 264.23 0 00-.277 1.304c-.302 1.432-.776 3.692.285 5.76-1.19.838-2.217 1.781-3.056 2.81-2.374-4.05-7.165-6.811-12.85-6.892H200.95c-7.348.091-13.732 2.905-16.98 7.056-2.29-4.162-7.086-7.053-12.772-7.19l-18.384-.06s-.136 0-.197.005a8.9 8.9 0 00-3.898 1.066 8.897 8.897 0 00-2.78-.906 4.452 4.452 0 00-.642-.047l-29.754.027a4.24 4.24 0 00-4.073 3.082l-.828 2.911c-2.663-3.517-7.252-5.924-12.402-6.029H79.62c-6.053 0-11.61 2.82-15.115 7.257-2.29-4.188-7.07-7.09-12.738-7.22H21.46a4.239 4.239 0 00-4.083 3.1L.158 74.573a4.238 4.238 0 004.08 5.382H21.31a4.241 4.241 0 004.078-3.087l.175-.617c.092.722.37 1.42.82 2.014a4.232 4.232 0 003.386 1.69h17.22c.767 0 1.49-.213 2.118-.577a4.26 4.26 0 002.086.555h17.055a4.237 4.237 0 004.073-3.061l.184-.63a4.233 4.233 0 004.204 3.692h17.215c.73 0 1.426-.19 2.037-.525a4.228 4.228 0 002.065.546h17.222a4.24 4.24 0 004.08-3.096l.134-.472a4.237 4.237 0 004.186 3.575h17.3c1.9 0 3.57-1.265 4.08-3.095l.203-.718c.078.763.36 1.5.834 2.13a4.246 4.246 0 003.374 1.683l16.993.038a4.239 4.239 0 004.078-3.087l.986-3.487c2.373 3.647 6.74 6.212 11.858 6.5a4.6 4.6 0 00.233.007l17.585.022c4.79 0 9.068-1.084 12.357-2.92.145.442.36.862.645 1.243a4.243 4.243 0 003.383 1.684l12.879-.028 12.69.02c12.368 0 17.3-6.123 19.263-11.261.039-.1.073-.207.104-.313l5.243-17.776c.026-.085.046-.171.066-.258l.566-2.495c.068-.292.105-.592.109-.893l.002-.367c0-7.106-6.212-12.764-14.143-12.883l-3.447.053.549-1.779h.997l17.125-.038a4.238 4.238 0 004.074-3.1l3.787-13.573a4.233 4.233 0 00-.016-2.32c.22-.486.398-1 .514-1.547.182-.85.216-1.66.102-2.423.22-.393.383-.824.472-1.28.17-.848.687-3.421-1.07-5.57z" fill="#FFF" mask="url(#b)"></path><path d="M239.741 12.926c-.898 0-1.499-.202-1.84-.621-.551-.682-.359-1.861-.073-3.221l.247-1.179c.542-2.228 1.079-3.689 3.499-3.689.689.013 1.194.2 1.5.556.312.362.422.904.327 1.609a3.608 3.608 0 01-.102.629l-.005.017h-1.561l.004-.025c.008-.078.019-.166.03-.258.051-.383.115-.861-.089-1.092-.084-.096-.206-.142-.37-.142-1.12 0-1.369 1.257-1.505 1.934l-.025.128-.482 2.291c-.114.525-.208 1.171.074 1.52.134.168.346.253.631.253.721 0 .962-1.023 1.105-1.633.023-.096.042-.179.062-.249l.004-.016h1.598l-.142.501c-.481 1.833-1.399 2.687-2.887 2.687M261.467 12.72h-1.642l-.003-.018-.58-2.937c-.182-.9-.302-1.834-.396-3.096-.046.297-.093.619-.14.956l-.18 1.214a58.051 58.051 0 01-.416 2.316l-.33 1.565h-1.59l.007-.026 1.748-8.281h1.634l.003.018.567 3.01c.187.916.305 1.85.394 3.1.067-.403.132-.826.195-1.238.045-.307.092-.616.142-.925.134-.9.27-1.661.41-2.324l.345-1.641h1.589l-.005.026-1.752 8.28zM267.265 12.72h-4.388l.006-.026 1.754-8.281h4.383l-.27 1.259h-2.79l-.435 2.042h2.577l-.006.026-.258 1.227h-2.576l-.526 2.499h2.798l-.005.026zM270.721 12.926c-.825 0-1.415-.21-1.75-.625-.346-.427-.43-1.071-.247-1.919l.131-.621h1.585l-.007.026-.103.484c-.13.53-.11.91.063 1.131.12.155.32.234.595.234.622 0 1.005-.321 1.14-.95.1-.452-.019-.783-.38-1.073-.222-.208-.473-.4-.716-.586-.498-.379-1.014-.773-1.319-1.329a2.018 2.018 0 01-.13-1.283c.303-1.459 1.283-2.199 2.906-2.199.79 0 1.35.198 1.67.588.493.603.31 1.518.2 2.065l-.02.101H272.8l.005-.026c.104-.454.198-.959-.018-1.229-.11-.139-.292-.205-.554-.205-.558 0-.882.246-.99.754-.125.595.195.835.6 1.137l.024.019c.552.403 1.275.967 1.595 1.36.402.497.492.986.331 1.747-.318 1.503-1.467 2.399-3.072 2.399M217.53 75.745l.006-.027L221.467 62h.016l17.078.027c.004 0 .3.024.728.024.834 0 2.344-.092 3.11-.707 1.113-.887 1.2-1.936 1.2-1.947l1.137-3.778c.002-.019.345-2.11-1.808-3.299-.008-.006-.829-.523-1.42-.675l-1.208.08h-2.964c-2.678-.15-5.16-1.105-6.994-2.688-1.838-1.588-2.849-3.666-2.849-5.853 0-.129 0-.252.011-.378l.467-2.783 4.747-17.416c.3-2.209 2.003-4.307 4.795-5.907 2.831-1.622 6.481-2.543 10.276-2.59h25.577l-.009.028-3.789 13.591h-.018l-17.294.037-1.463.122c-.036-.002-.069-.002-.1-.002-1.517 0-2.955 1.238-3.273 2.82l-.965 3.114c-.114.252-.166.532-.166.885 0 1.64 1.277 3.05 3.107 3.431l.427-.138 4.45-.072c2.715.04 5.242.97 7.116 2.62 1.853 1.63 2.872 3.776 2.872 6.046l-.003.32-.569 2.5-5.24 17.776c-1.064 2.784-2.88 4.92-5.398 6.35-2.573 1.46-5.912 2.2-9.925 2.2h-.55l-12.135-.02-12.912.027zM166.528 75.893l-.098-.002-17.153-.04.047-.163 12.558-44.502.373-1.708c-.007-.824-.876-1.518-1.939-1.518l-4.305.002c-1.086.015-1.949.677-1.966 1.506l-.005.033-.104.365-12.889 45.986h-17.57l.047-.164 13.027-45.966c-.003-.078.032-.161.065-.243a.735.735 0 00.04-.107c0-.838-.866-1.523-1.929-1.523l-4.36.039c-1.09 0-1.969.669-2 1.522l-13.022 46.435h-17.49l.047-.164 17.547-61.726h.097l29.75-.03c1.952.298 3.365 1.634 3.424 3.2.167-1.791 1.896-3.224 4.072-3.317l18.303.06c5.732.137 10.22 3.928 10.22 8.629 0 .562-.063 1.13-.195 1.793l-14.592 51.603z" fill="#0298DF"></path><path d="M108.495 68.773l13.357-48.071h16.827c4.122.68 7.337 3.722 7.337 6.925l-.166.698-11.667 40.663M150.175 24.75c1.105-3.066 3.307-4.049 7.001-4.049h9.825c3.031.273 4.01 1.176 4.756 2.747.69 1.448-.153 4.025-.188 4.133L160.1 68.762" stroke="#FFF" stroke-width=".5"></path><path d="M150.087 28.254c-.08.205-.151.422-.216.648l-12.248 43.456h-8.856l.033-.118 11.724-41.294c.278-1.253.39-1.569.463-1.649.198-1.32-.065-2.418-.786-3.264-1.426-1.675-4.086-1.804-4.867-1.804l-4.994.084c-2.113 0-5.04.443-6.073 4.277l-12.303 43.77-8.833-.002.032-.118 15.544-54.972h.069l21.359.013c3.875.035 7.255 1.93 9.003 4.692 1.325-2.886 4.272-4.598 7.956-4.598h.165l13.616.02c3.465.024 6.284 2.333 6.284 5.147 0 .323-.038.647-.11.96l-13.757 48.856h-8.797l.033-.118 11.352-40.05.695-2.738c.397-1.606.276-2.795-.372-3.633-.761-.986-2.268-1.478-4.606-1.506h-5.25c-1.75.033-4.705.56-6.08 3.511l-.18.43zM222.845 72.167h25.145l.203.002c3.89 0 5.102-1.738 6.214-5.392l5.026-18.69c-.012-4.01-2.339-6.324-6.552-6.514l-4.35.02c-2.064 0-4.166-1.007-5.487-2.626-1.034-1.267-1.444-2.743-1.154-4.154l1.57-5.85c1.492-3.976 3.236-4.705 6.135-4.713l16.643-.015 1.836-6.732-23.594-.008c-3.508.007-7.031 2.933-8.022 6.657l-4.61 17.072c-.23 1.926.246 3.625 1.376 4.897 1.159 1.305 2.94 2.052 4.887 2.052l4.488.116c3.92 0 6.629 2.694 6.736 6.706v.011l-.002.012-.775 3.286-.48 1.755c-.589 3.164-3.293 5.385-6.576 5.393h-16.45l-2.207 6.715z" stroke="#FFF" stroke-width=".5"></path><path d="M228.086 68.77h16.326c4.45.12 6.326-1.416 6.96-5.647.027-.114 2.525-10.616 2.574-10.882.363-2.046.02-3.728-1.017-5-1.142-1.397-3.154-2.235-5.521-2.294l-3.938-.03-1.382-.153c-2.037.085-3.808-.642-4.851-1.981-.978-1.26-1.204-2.913-.651-4.783.147-.508.302-1.124.297-1.328v-.014l.002-.014 3.068-10.681c.945-3.237 3.186-5.093 6.154-5.093.136 0 .415-.018.684-.035.278-.017.54-.034.678-.034l15.577.029" stroke="#FFF" stroke-width=".5"></path><path d="M254.4 6.745c-.155.734-.573 1.163-1.177 1.208h-1.238l.004-.026.487-2.299h1.165c.256.006.538.037.691.227.137.175.16.457.067.89m1.678-.32c.132-.62.062-1.105-.206-1.436-.315-.388-.884-.576-1.743-.576h-2.939l-1.744 8.28-.006.027h1.585l.75-3.555h.414c.416 0 .786.008 1.127.106.455.147.333.772.236 1.274l-.01.06-.064.31c-.116.567-.276 1.346-.214 1.786l.003.02h1.732l.04-.184-.01-.008c-.19-.139-.12-.97.201-2.467.011-.05.022-.093.026-.123.107-.499.075-.867-.1-1.124-.137-.2-.356-.33-.665-.4.802-.158 1.336-.827 1.587-1.99M245.674 9.416l.012-.03.96-2.347c.129-.309.222-.602.324-.914.022-.074.047-.148.072-.224.058-.222.12-.4.194-.558l.04.011-.015.173c-.013.125-.025.254-.043.384l-.026.254a7.99 7.99 0 00-.062.883l-.082 2.368h-1.374zm1.288 3.304h1.694l-.128-8.285-.002-.022h-2.113l-3.725 8.276-.012.031h1.7l.848-2.089h1.772l-.034 2.066v.023zM209.482 30.08l-8.602 30.493c-.169.797-1.053 1.386-2.099 1.4h-4.352c-1.135-.035-2.033-.75-2.043-1.632l.023-.495 8.66-30.524c.175-.824 1.137-1.503 2.141-1.51h4.35c1.133.024 2.03.737 2.042 1.622l-.12.645zm18.82-7.143l.01-.32c0-2.249-1.06-4.368-2.992-5.97-1.924-1.598-4.495-2.499-7.239-2.538h-17.08c-3.789.047-7.436.964-10.272 2.58-2.788 1.587-4.482 3.66-4.772 5.827L173.96 64.102l-.14 2.703a5.266 5.266 0 00-.01.378c0 2.18 1.01 4.26 2.843 5.85 1.823 1.58 4.288 2.534 6.94 2.685l17.198.02h.38c3.94 0 7.652-.885 10.453-2.49 2.798-1.606 4.365-3.747 4.404-6.027l12.31-42.948.002-.003-.038-1.333zM88.107 35.883l-.12.41c-.285 1.201-.969 1.738-2.216 1.738h-.048l-6.753.01.008-.027 2.367-8.603c.046-.942 1.287-1.602 2.371-1.602h3.98c1.228 0 2.191.738 2.191 1.678 0 .415-1.339 4.916-1.78 6.396m17.434-19.282c-2.013-1.582-4.705-2.522-7.388-2.576H79.621a15.226 15.226 0 00-9.283 3.169c-2.593 2.009-4.403 4.782-5.096 7.802l-14.07 50.693-.007.029h17.1l6.5-22.483c.16-.748.98-1.32 1.95-1.361l4.211-.005c1.02.005 1.887.578 2.063 1.365l.11.621-6.412 21.834-.008.029h17.26l14.903-53.19.001-.007c-.069-2.196-1.242-4.298-3.302-5.92" fill="#0298DF"></path><path d="M65.263 72.322H56.49l.033-.118 13.21-47.06c1.01-4.438 5.411-7.79 10.233-7.79h18.447a6.526 6.526 0 014.754 2.83c.875 1.284 1.227 2.793.917 3.938L91.075 72.237l-9.023.009.034-.117 5.278-18.234.818-2.725c.16-.672.07-1.233-.268-1.66-.818-1.04-2.998-1.172-4.566-1.183l-7.16-.036c-2.175.087-4.517.617-5.362 3.884l-5.563 20.147z" stroke="#FFF" stroke-width=".5"></path><path d="M73.602 41.469l3.58-12.179c.443-1.912 1.745-5.129 5.48-5.129l6.098-.01c.222 0 .46-.002.705-.006 1.768-.024 4.006-.052 4.968 1.137.466.577.59 1.393.368 2.428-.193.891-1.152 4.774-1.162 4.812l-1.33 4.771c-.663 2.842-2.602 4.166-6.1 4.166l-.17-.001-12.437.011z" stroke="#FFF" stroke-width=".5"></path><path d="M61.65 68.837l12.233-43.49c.496-2.192 2.964-4.56 6.083-4.56l16.015.017.198-.003c1.486 0 2.618.42 3.284 1.22.576.69.76 1.623.535 2.698-.188.885-3.927 14.126-7.543 26.931a9578.489 9578.489 0 00-4.839 17.163M68.484 44.676h25.79" stroke="#FFF" stroke-width=".5"></path><path d="M41.045 36.18c-.048.16-.076.257-.08.266a3.75 3.75 0 01-.113.4c-.305.856-.883 1.187-2.001 1.187l-.063-.001-6.896.009h-.03l.009-.027 2.506-8.5.536-1.713h.017l5.826.008c1.22 0 2.176.738 2.176 1.679 0 .196-.327 1.516-1.887 6.693m17.779-19.503c-1.89-1.625-4.43-2.555-7.152-2.615H21.444L4.22 75.709l-.01.03h17.115l6.798-24.021 5.69.159.187-.008c1.152 0 2.09.737 2.09 1.643 0 .016-.032.092-.058.154-.07.166-.104.256-.093.296l-6.191 21.747-.01.03h17.27l6.626-23.74c.01-.106.015-.212.015-.313 0-1.41-.78-2.64-2.038-3.23 2.206-.044 3.992-1.621 4-3.552l.414-1.102 5.683-20.027.033-1.112c0-2.243-1.036-4.37-2.917-5.985" fill="#0298DF"></path><path d="M26.317 41.532l.036-.118 5.22-17.222h.067l12.761.016c1.516.05 2.608.471 3.164 1.222.444.6.54 1.391.281 2.352-.057.224-.647 2.312-1.27 4.524a704.698 704.698 0 00-1.426 5.074c-.62 2.637-2.7 4.148-5.712 4.148h-.086c-.09 0-.823-.002-2.183-.002-3.686 0-10.728.006-10.728.006h-.124z" stroke="#FFF" stroke-width=".5"></path><path d="M21.365 44.968l.035-.118 7.068-24.131h.069l17.721.012c3.056 0 5.083.627 6.02 1.862.606.796.746 1.862.405 3.082a6697.914 6697.914 0 01-3.731 13.184c-.952 3.986-4.007 6.095-8.833 6.095l-.183-.001c-.44-.009-18.448.015-18.448.015h-.123z" stroke="#FFF" stroke-width=".5"></path><path d="M43.653 72.455h-8.48l4.545-15.899c.37-1.299.435-2.293.435-2.302 0-2.31-1.3-3.72-2.394-4.495a7.865 7.865 0 00-2.972-1.27h-.013v-.002a6.628 6.628 0 00-1.276-.135l-8.767-.01-6.749 24.113h-8.37l.031-.116 15.128-54.973h27.031c2.96.097 4.602 2.267 5.036 2.93.512.784.777 1.575.647 1.933l-.159 1.445c-1.335 4.905-3.837 14.111-3.994 14.791l.003.002-.012.047c-1.51 5.92-3.71 8.495-7.859 9.502a4.549 4.549 0 012.582 1.566c.565.7 1.177 1.917.878 3.743-1.49 5.2-5.215 18.924-5.252 19.063l-.019.067zM13.863 70.704l7.502-25.736M202.775 72.19c-.522 0-1.07-.023-1.625-.07l-17.482-.021c-2.247-.156-3.606-1.026-4.352-1.728-.844-.795-1.368-1.838-1.368-2.72l.12-2.433 11.104-39.808.584-1.562c.297-.89 1.095-2.604 3.087-4.072 2.082-1.533 4.84-2.332 8.194-2.374h14.721c3.25.11 5.765 1.039 7.086 2.616.765.914 1.083 1.987.924 3.104l-.388 2.327-10.643 39.049c0 .009-.307 1.328-.573 2.14-.553 1.669-2.574 5.553-9.389 5.553z" stroke="#FFF" stroke-width=".5"></path><path d="M193.326 69.012h-.002c-5.944-.063-8.831-.7-9.961-2.198-1.063-1.41-.578-3.595.166-6.306l9.178-32.314c.642-2.713 1.893-4.746 3.716-6.04 1.806-1.283 3.787-1.552 5.132-1.552.185 0 .374.006.56.014h12.157c1.903.22 3.395 1.023 4.21 2.262.756 1.146.912 2.57.45 4.117l-.543 2.899-1.01 3.29-8.155 28.394c-2.032 7.356-6.377 7.366-9.55 7.374l-.386.002-5.962.058zM40.547 48.392c2.304.603 4.44 3.175 3.864 6.758L40.51 69.018M45.464 48.016c-2.41.497-8.083.465-11.966.337M149.137 21.973a8.03 8.03 0 011.155 4.109c0 .219-.303 2.155-.346 2.573" stroke="#FFF" stroke-width=".5"></path><path d="M194.343 65.504c-1.135-.027-2.797-.134-4.142-.752-1.57-.723-2.374-1.985-2.39-3.75l.58-2.917 8.436-29.453c.768-3.002 3.778-4.6 6.352-4.626h.001l6.582.17c1.47.035 3.11.166 3.97 1.267.606.78.727 1.92.371 3.488l-.37 2.446-8.644 29.618c-.364 1.438-1.262 2.631-2.599 3.447a7.44 7.44 0 01-3.71 1.062h-4.438z" stroke="#FFF" stroke-width=".5"></path></g></svg>