<?xml version="1.0" encoding="UTF-8"?>
<svg version="1.1" xmlns="http://www.w3.org/2000/svg" xmlns:xlink="http://www.w3.org/1999/xlink">
    <g id="Page-1" stroke="none" stroke-width="1" fill="none" fill-rule="evenodd">
        <g id="pleca_header" transform="translate(-8.000000, 0.000000)" fill="#003CA6" fill-rule="nonzero">
            <path d="M0.807327,0.584394898 C35.639027,0.55486972 100.863591,1.24107558 112.431159,2.35488746 C124.037726,3.46564501 154.843575,6.72359566 208.990553,10.0385604 C263.098533,13.3525071 360.805884,17.1429291 360.805884,17.1429291 C360.805884,17.1429291 601.172908,20.4304049 624.361043,22.6600649 C647.548177,24.8744532 813.98696,15.5047908 879.7915,16.575842 C903.28263,16.9505064 1006.12279,12.5146029 1006.12279,12.5146029 C1006.12279,12.5146029 1103.41515,13.8798879 1113.38778,13.1590663 C1128.8932,12.022856 1121.24949,8.67225739 1183.24417,6.37031163 C1245.23886,4.0714202 1468.37153,7.43525425 1468.37153,7.43525425 L1536,0 C489.291086,0.409280051 -22.439805,0.60407835 0.807327,0.584394898 Z" id="Fill-1"></path>
        </g>
    </g>
</svg>
