<?xml version="1.0" encoding="UTF-8"?>
<svg width="119px" height="8px" viewBox="0 0 119 8" version="1.1" xmlns="http://www.w3.org/2000/svg" xmlns:xlink="http://www.w3.org/1999/xlink">
    <!-- Generator: Sketch 58 (84663) - https://sketch.com -->
    <title>swosh ramos</title>
    <desc>Created with Sketch.</desc>
    <g id="Page-1" stroke="none" stroke-width="1" fill="none" fill-rule="evenodd">
        <g id="swosh-ramos" fill="#F47F3D" fill-rule="nonzero">
            <path d="M119.0353,2.5 C118.8303,2.493 118.5923,2.501 118.7233,2.526 C118.9673,2.522 118.9153,2.523 119.1963,2.519 C119.3723,2.527 119.5023,2.54 119.4723,2.542 C119.5623,2.546 119.6393,2.549 119.8383,2.557 C119.6093,2.541 119.3223,2.517 119.0203,2.51 C118.9583,2.503 119.0193,2.502 119.0353,2.5" id="Fill-4"></path>
            <path d="M101.9777,1.3974 L102.0867,1.4214 C102.0567,1.4084 102.0197,1.4014 101.9777,1.3974" id="Fill-6"></path>
            <path d="M91.3829,1.1113 C91.4629,1.1043 91.4969,1.0793 91.5009,1.0563 C91.4269,1.0733 91.3639,1.0893 91.3829,1.1113" id="Fill-8"></path>
            <g id="Group-12" transform="translate(89.000000, 0.000000)">
                <path d="M0.5704,0.83 C0.6104,0.836 0.6414,0.842 0.6764,0.848 C0.6364,0.824 0.5944,0.81 0.5704,0.83" id="Fill-10"></path>
            </g>
            <path d="M101.9777,1.3974 L101.6967,1.3334 C101.6737,1.3944 101.8387,1.3814 101.9777,1.3974" id="Fill-13"></path>
            <path d="M116.6769,2.4575 C116.7309,2.4555 116.7789,2.4535 116.8299,2.4515 L116.6869,2.4505 L116.6769,2.4575 Z" id="Fill-15"></path>
            <path d="M106.6486,1.4829 L106.7346,1.4869 C106.7586,1.4719 106.7846,1.4519 106.8066,1.4309 L106.6486,1.4829 Z" id="Fill-17"></path>
            <path d="M110.2287,1.6601 C110.1487,1.6511 110.1157,1.7491 110.0827,1.7921 C110.1287,1.7531 110.1917,1.7361 110.2607,1.7321 C110.2637,1.7131 110.2537,1.6901 110.2287,1.6601" id="Fill-19"></path>
            <path d="M115.8878,2.2324 L115.9888,2.2334 C115.9608,2.2334 115.9188,2.2324 115.8878,2.2324" id="Fill-21"></path>
            <path d="M104.0861,1.3174 C104.0791,1.2954 104.0661,1.2754 104.0551,1.2634 C104.0541,1.2814 104.0651,1.2994 104.0861,1.3174" id="Fill-23"></path>
            <g id="Group-33" transform="translate(85.000000, 0.000000)">
                <path d="M1.2531,0.5293 C1.2601,0.5313 1.2621,0.5323 1.2681,0.5343 C1.3551,0.5083 1.3051,0.5123 1.2531,0.5293" id="Fill-31"></path>
            </g>
            <path d="M55.861,1.7671 C56.22,1.9961 55.322,2.1221 55.857,2.3681 C55.801,2.2621 56.3,1.9031 55.861,1.7671" id="Fill-34"></path>
            <path d="M116.5841,2.4487 L116.4381,2.4437 C116.5051,2.4467 116.5481,2.4477 116.5841,2.4487" id="Fill-36"></path>
            <path d="M55.8571,2.3681 L55.8571,2.3701 L55.9121,2.3931 C55.8891,2.3831 55.8761,2.3771 55.8571,2.3681" id="Fill-38"></path>
            <g id="Group-42" transform="translate(78.000000, 0.000000)">
                <path d="M0.6193,0.7524 C0.6363,0.7974 0.6683,0.8314 0.6993,0.8644 C0.6963,0.8374 0.6793,0.8054 0.6193,0.7524" id="Fill-40"></path>
            </g>
            <path d="M84.3146,1.0171 L84.1716,0.9851 C84.2286,1.0071 84.2746,1.0151 84.3146,1.0171" id="Fill-43"></path>
            <path d="M75.6798,1.1948 C75.6028,1.1768 75.5758,1.1408 75.4718,1.1788 C75.4818,1.1928 75.4928,1.2008 75.5038,1.2108 C75.5398,1.1738 75.5898,1.1548 75.6798,1.1948" id="Fill-45"></path>
            <path d="M72.6085,1.2798 C72.6255,1.3008 72.6475,1.3158 72.6675,1.3328 C72.6975,1.3278 72.7325,1.3218 72.7625,1.3158 L72.6085,1.2798 Z" id="Fill-47"></path>
            <path d="M13.4645,7.0205 C13.3945,6.9915 13.3485,6.9555 13.3125,6.9185 C13.3685,7.0045 12.9215,7.0685 13.4645,7.0205" id="Fill-49"></path>
            <path d="M116.6769,2.435 C116.6569,2.444 116.6299,2.449 116.5829,2.449 L116.6869,2.451 C116.6959,2.445 116.6979,2.439 116.6769,2.435" id="Fill-51"></path>
            <path d="M75.6281,3.2949 L75.1411,3.2759 C75.2761,3.2959 75.4531,3.3019 75.6281,3.2949" id="Fill-53"></path>
            <path d="M35.4079,5.4013 L35.2989,5.4373 C35.3429,5.4403 35.3809,5.4303 35.4079,5.4013" id="Fill-55"></path>
            <path d="M73.6994,3.3755 C73.6084,3.2845 73.5134,3.2325 73.4194,3.2005 C73.3984,3.2225 73.3774,3.2405 73.3654,3.2715 L73.6994,3.3755 Z" id="Fill-57"></path>
            <path d="M13.3102,6.9179 L13.3122,6.9189 L13.3102,6.9179 Z" id="Fill-59"></path>
            <g id="Group-63">
                <path d="M19.7848,5.1162 C19.9258,5.0742 19.9758,5.1022 19.9998,5.1342 C19.9328,5.1482 19.8548,5.1632 19.7508,5.1842 L19.7358,5.2072 C19.7468,5.1742 19.7598,5.1402 19.7848,5.1162 M21.8208,6.1282 C21.7108,6.1302 21.5718,6.1392 21.4268,6.1532 C21.3888,6.0942 21.4178,6.0282 21.5088,6.0242 C21.4638,6.0692 21.6808,6.0862 21.8208,6.1282 M20.9128,6.2042 L20.9138,6.2072 C20.8208,6.2192 20.7418,6.2292 20.6908,6.2352 C20.7368,6.2282 20.8018,6.2202 20.9128,6.2042 M10.1358,7.4132 C10.5998,7.3872 10.3398,7.2692 10.4298,7.1852 C10.9778,7.1032 10.6958,7.2652 10.8918,7.3242 C11.2338,7.2642 11.4838,7.1132 11.7418,7.0962 C11.7638,7.1202 11.8148,7.1262 11.7598,7.1602 C12.1118,7.0122 12.8428,7.0742 13.2508,6.8822 C13.2838,6.8942 13.3018,6.9062 13.3098,6.9182 C13.2328,6.8422 13.2138,6.7602 13.2228,6.6992 C13.4298,6.6782 13.5958,6.5592 13.6848,6.6612 C13.5568,6.6692 13.5518,6.7142 13.4958,6.7532 L13.7078,6.6862 C13.9208,6.8272 13.4168,6.7672 13.4298,6.8812 C13.8478,6.7992 14.3278,6.6202 14.6578,6.6372 C14.7418,6.7942 13.9028,6.7552 14.3508,6.8612 L13.8428,6.8412 C14.2528,7.0562 13.5348,6.8452 13.9158,7.0822 C14.5828,7.0852 14.6478,6.9502 15.3138,6.9512 C15.4528,6.8462 15.2508,6.8182 15.3888,6.7132 C16.3088,6.4602 16.1728,7.0922 16.8388,6.8062 C17.0058,6.6762 17.0518,6.4372 17.5548,6.5192 L17.4078,6.7422 C18.0518,6.7152 17.7428,6.4082 18.4288,6.4972 C18.3178,6.5922 17.9318,6.6092 18.0318,6.6272 C18.4828,6.7622 18.3268,6.4802 18.6608,6.4522 L18.7498,6.6402 C19.4288,6.5632 20.1658,6.3622 20.9178,6.2622 C20.8818,6.3282 20.7588,6.4042 20.9418,6.4552 C21.8848,6.2802 22.9778,6.3282 23.9108,6.4042 L24.2428,6.1782 C24.3248,6.1742 24.4028,6.2582 24.3178,6.3032 C24.6838,6.3532 24.3248,6.1742 24.4898,6.0812 C24.6918,6.0512 24.7688,6.1782 24.6458,6.2482 C25.2628,6.0322 26.4108,5.7232 27.0978,5.9082 L26.9738,5.9812 C27.5008,6.0342 27.5178,5.4932 28.0178,5.6602 L27.9298,5.7062 C29.0628,5.7202 30.2888,5.4122 31.1788,5.7012 C31.3108,5.3512 32.3058,5.7732 32.3358,5.2882 C32.9988,5.4772 32.8218,5.5772 33.7408,5.6762 C33.9848,5.6802 34.0748,5.3422 34.3698,5.2672 L34.3988,5.5262 L34.7818,5.2252 L35.0238,5.5232 L35.2988,5.4372 C35.1848,5.4282 35.0518,5.3352 35.0618,5.2592 C35.4898,5.1092 36.1448,5.3692 36.1668,5.5062 L37.1838,5.2102 C37.1708,5.3202 36.9998,5.3692 36.8678,5.4472 C37.3978,5.1362 36.9918,5.7232 37.4778,5.4382 C37.4048,5.3822 37.5018,5.2752 37.5088,5.2202 C37.7748,5.3662 38.3488,5.3302 38.7688,5.2312 L38.7028,5.4252 C39.4748,5.4232 40.3148,5.2262 41.1778,5.1702 C40.8608,5.1002 40.9058,4.7612 41.1558,4.7092 L41.2808,5.0002 C41.4298,4.8042 41.0078,4.9072 41.3258,4.6572 C41.6498,4.6672 41.5678,4.9812 41.3908,5.0912 L41.7738,4.9602 C41.8048,5.0482 41.7168,5.1012 41.7008,5.2172 C41.8468,5.0192 42.3998,5.4712 42.6068,5.1322 L42.6368,5.2202 C43.4978,5.1622 43.8808,5.0382 44.5818,4.9792 C44.5758,4.7132 44.8548,4.7552 45.0488,4.5272 C45.5708,4.5782 46.1588,4.7522 46.7788,4.6902 C47.2068,4.5282 46.8898,4.4542 47.0758,4.2812 C47.1258,4.5242 47.7448,4.4612 47.4348,4.6582 C48.1788,4.5712 48.3848,4.5492 49.3138,4.2852 C49.2048,4.1902 49.0868,4.1542 49.1398,4.0652 C49.3088,4.0122 49.5378,4.1432 49.5208,4.2642 L49.4778,4.2932 C50.5128,3.8462 51.9728,4.8612 52.7798,4.2832 L52.7338,4.3112 L53.5918,3.9882 C53.9978,4.0082 53.3628,4.1912 53.6708,4.3312 C54.5878,3.8552 55.1658,4.3082 55.9258,3.9812 C56.5728,4.6982 58.0568,3.8042 58.8978,4.2362 L58.8408,4.0612 C59.0398,3.8752 59.0998,4.1482 59.2578,4.1792 C59.2268,4.0432 59.0198,4.0332 59.1448,3.9292 C60.9108,3.6082 62.8288,3.9632 64.6598,4.0402 C65.3278,4.0542 64.9908,3.1072 65.8528,3.4872 L65.6308,3.8262 C66.9568,3.3662 68.3818,3.6982 69.6828,3.2982 C69.6078,3.3772 69.6108,3.4742 69.4818,3.4802 C69.7698,3.7002 70.5118,3.4362 70.5078,3.2452 C70.7138,3.2572 70.5618,3.4162 70.6928,3.5062 C70.9778,3.6292 71.3808,3.1702 71.5388,3.3942 C71.5658,3.4302 71.4638,3.4742 71.4138,3.4952 C71.5908,3.3722 72.2618,3.4772 72.0768,3.2192 C72.5768,3.3162 73.0168,3.0602 73.4188,3.2002 C73.6638,2.8932 74.2698,3.3092 74.3368,2.8872 C74.3168,3.3212 75.2158,3.1992 75.5208,2.9862 C75.4218,3.1192 75.7988,3.1092 75.6818,3.2932 C76.0388,3.2712 76.3628,3.1782 76.2928,2.9622 C76.9678,3.4422 77.6008,2.5032 77.9928,3.1322 C79.0448,2.8612 80.0218,2.6702 80.9738,2.5362 C80.9518,2.9442 79.9208,2.6202 79.9728,3.0492 C80.8728,2.8382 81.3868,2.4702 82.2868,2.5312 C82.5198,2.5752 82.1598,2.7102 82.0818,2.7822 C82.9818,2.5812 83.8308,2.7662 84.6308,2.5292 C84.6288,2.5652 84.5428,2.6072 84.4618,2.6392 C84.6198,2.6222 84.8318,2.6862 84.8098,2.5102 L84.6558,2.5622 C84.3978,2.3112 85.2758,2.0132 85.3028,1.8812 C85.0428,2.3872 86.0998,1.9902 85.6828,2.6292 C85.7868,2.5942 85.9168,2.5082 85.8898,2.3922 C86.0468,2.4232 86.0968,2.4892 85.9418,2.6252 C86.5088,2.5142 86.3038,2.3372 86.8178,2.3282 C86.8178,2.4112 86.7148,2.4462 86.6628,2.5452 C86.9208,2.3752 87.1808,2.2092 87.6178,2.2682 C87.5918,2.3182 87.6418,2.3812 87.5128,2.3832 C88.2598,2.3362 88.7808,1.9332 89.6028,2.0662 C89.3648,2.4152 89.8838,2.1722 89.9298,2.4662 L90.3688,2.3652 L90.1908,2.2272 C90.5778,2.2222 90.9178,2.0032 91.2498,2.0902 L90.9638,2.2162 L91.6868,2.1422 L91.2768,2.0442 C91.6668,1.8872 91.2318,1.6812 91.7478,1.7522 C91.6428,1.7832 92.1348,1.7492 92.3368,1.9102 L92.3358,1.9112 C92.5258,1.8192 92.7228,1.7292 93.0088,1.7982 C93.0828,1.8862 92.9498,2.1042 92.9978,2.1632 C93.1858,1.9312 93.9018,2.0952 94.1408,1.8532 C94.0608,1.9102 94.0568,2.0522 94.0838,2.0812 L94.2428,1.8972 C94.4208,1.9562 94.4468,1.9842 94.4178,2.0962 C94.9568,2.1272 94.2478,1.7572 94.8868,1.9022 C94.8358,1.9172 94.8598,1.9442 94.7558,1.9712 C95.3968,2.0442 95.9958,1.8582 96.5858,1.9432 C96.7578,2.1972 96.0698,2.0082 96.2668,2.2232 C97.1178,2.1652 98.0298,1.9122 98.8518,1.9682 L98.6998,1.9422 C98.8178,1.6062 99.3098,2.1062 99.7278,1.9472 C99.6268,1.9712 99.5928,2.1292 99.6208,2.0932 C100.1828,2.1402 100.7738,2.0022 101.6298,1.9052 L101.5218,1.9832 C101.8528,2.0472 102.3958,2.0212 102.7538,2.0662 C102.8618,1.9932 103.0668,2.0112 102.9448,1.9002 C104.0398,2.3292 105.0598,1.7412 106.0318,2.0842 C105.9148,2.0822 105.7508,2.1362 105.8448,2.1372 L106.6808,2.0932 C106.6188,1.9872 106.5738,2.0282 106.4018,1.9412 C106.5098,1.8802 106.7468,1.8402 106.9548,1.8472 C106.5768,1.9042 106.9518,2.0142 107.1118,2.0732 C107.0858,2.0412 107.1418,2.0082 107.1308,1.9762 C107.5598,2.1652 107.2108,1.7752 107.8028,1.9132 L107.7688,1.9642 C107.9938,1.9432 108.2018,1.8842 108.4418,1.9062 C108.5368,2.0172 108.2018,1.9492 108.1828,2.0402 C108.5208,2.0382 108.8578,1.8552 109.1598,1.9692 C109.0148,1.9932 108.8078,1.9892 108.6638,2.0142 C108.9928,2.1462 109.0318,2.1142 109.2788,2.1372 L109.2548,2.1352 L109.8248,2.1962 L109.6808,2.1622 C110.1148,1.9182 110.5438,2.1322 111.1208,1.9922 C110.5598,2.1202 111.0248,2.0742 110.9778,2.1722 C111.1228,2.2022 111.3428,2.2352 111.2778,2.2622 C111.5518,2.1862 111.7238,2.3352 112.1088,2.2412 C112.1248,2.2702 112.3958,2.2562 112.3318,2.3242 C112.6828,2.3162 112.2518,2.2732 112.2848,2.2382 C112.8278,2.1762 113.5448,2.3982 114.3268,2.3202 C114.9988,2.3092 115.1268,2.2512 115.7488,2.2652 C115.9558,2.3052 115.5728,2.3172 115.5728,2.3172 C115.9098,2.3632 116.1638,2.3692 116.4828,2.3702 C116.4178,2.3802 116.4828,2.3942 116.5798,2.4152 C116.8358,2.4232 116.7538,2.3742 117.0898,2.4112 C117.0308,2.4222 116.9548,2.4412 116.8308,2.4512 C117.1238,2.4512 117.4418,2.4502 117.7448,2.4502 C117.8268,2.4712 117.5548,2.4682 117.4428,2.4762 C117.7948,2.4812 118.3528,2.4972 118.4638,2.4842 L118.2388,2.4642 C118.3678,2.4702 118.3038,2.4862 118.2088,2.4862 C117.9068,2.4912 117.7758,2.4572 117.7598,2.4452 L117.9818,2.4512 C117.7588,2.3802 117.0908,2.4042 116.6428,2.3832 L116.8338,2.3362 L116.3718,2.3572 C116.2748,2.3352 116.2118,2.2922 116.4318,2.2992 C116.1148,2.2422 116.1468,2.3032 115.8748,2.2442 C115.8458,2.2362 115.8588,2.2332 115.8878,2.2322 L115.5728,2.2302 C115.6358,2.2202 115.5248,2.1732 115.7168,2.1992 C115.1578,2.1052 114.8068,2.1892 114.5998,2.1072 L114.6468,2.1052 C113.8678,2.0742 114.5678,2.1642 113.9778,2.2082 L113.5968,1.9962 L113.5148,2.0672 C113.4338,2.0582 113.2758,2.0402 113.3068,2.0112 C113.0048,2.0422 113.3558,2.0492 113.1798,2.0882 C112.7968,1.9832 112.1108,2.0512 112.0308,1.9012 C111.8888,1.9602 112.3978,1.9812 111.9828,2.0002 C111.8728,1.8342 111.5048,1.9852 111.1538,1.9022 C111.2668,1.8182 111.5998,1.8822 111.2498,1.7872 C111.0288,1.9272 110.5618,1.7202 110.2618,1.7322 C110.2428,1.8602 109.6098,1.7562 109.1068,1.7792 C109.1398,1.7342 108.1678,1.6582 107.7028,1.5772 L107.7178,1.5532 C107.6218,1.7042 107.1418,1.6532 106.7908,1.6722 C106.8068,1.5742 106.8718,1.5372 107.0628,1.5042 L106.7338,1.4872 C106.6538,1.5362 106.5508,1.5592 106.3368,1.5692 L106.4238,1.4462 C105.9848,1.4282 105.5358,1.5552 104.9738,1.4382 C104.9388,1.5662 105.4128,1.8052 104.8138,1.8732 C104.7948,1.8032 104.7748,1.6832 104.9318,1.6612 C104.8808,1.6682 104.7488,1.7122 104.6458,1.6782 L104.8888,1.5712 C104.6328,1.5082 104.7508,1.6622 104.5458,1.6442 C104.5528,1.5442 104.3958,1.5662 104.4278,1.4872 C104.4798,1.4802 104.6048,1.5372 104.6848,1.5012 C104.4538,1.4732 104.1758,1.4002 104.0858,1.3172 C104.1038,1.3762 104.0818,1.4542 103.9118,1.4602 C103.4728,1.4482 103.7648,1.3282 103.5108,1.2612 C103.4018,1.3292 103.1248,1.2382 103.1128,1.3972 C102.9848,1.3902 102.9638,1.3142 102.9148,1.2682 C102.6858,1.3262 101.8538,1.2372 102.1058,1.4262 L102.1648,1.4392 C102.1518,1.4412 102.1408,1.4432 102.1268,1.4452 L102.1288,1.4452 L102.1268,1.4452 C101.3808,1.6032 100.5838,1.3232 99.8448,1.3842 L99.8468,1.3242 C99.4038,1.3862 98.8648,1.3472 98.5488,1.4792 C98.4178,1.4772 98.2428,1.3592 98.2988,1.2832 C97.9618,1.3252 97.9228,1.3992 97.4368,1.2832 C97.7768,1.1762 97.3208,1.1802 97.7848,1.2062 C97.3478,1.1422 97.2488,1.0322 96.7778,1.2042 C96.9388,1.0382 96.4488,0.9812 96.2408,1.0282 L96.5468,1.1582 C96.3128,1.1782 96.1078,1.1592 95.8998,1.1402 L96.0138,0.9132 C95.1178,0.6012 94.3958,1.3662 93.7138,0.8632 C93.4768,1.0282 94.2018,0.9932 93.9888,1.1862 C93.5768,1.1482 93.1458,0.7872 93.0168,0.7822 C92.4518,0.6292 92.4908,1.1302 91.8998,1.0382 C91.9758,1.1282 92.0488,1.3672 91.6078,1.4572 C91.1948,1.4292 91.0978,1.0782 91.3578,1.0042 C91.4578,0.9962 91.5058,1.0252 91.5018,1.0562 C91.6348,1.0232 91.8088,0.9842 91.6448,0.8862 L91.5928,0.9762 C91.3868,0.8842 90.8188,0.8942 90.9518,0.7432 C90.6398,0.8302 90.8188,0.8942 91.0508,0.9412 C90.5198,0.8082 90.2228,0.9382 89.6778,0.8472 C89.7648,0.9002 89.8458,1.0102 89.7598,1.0092 C88.9598,0.8942 89.4098,1.1892 88.8688,1.2352 C88.5598,1.0912 88.9748,0.8862 88.4308,1.0112 C88.0978,0.9122 88.3578,0.7552 88.4898,0.6772 C87.9948,0.8632 87.5588,0.5532 87.2748,0.5162 L87.5358,0.4382 C87.3798,0.4842 87.2518,0.4822 87.1208,0.4812 L87.2728,0.6782 C87.1188,0.6432 86.9888,0.6432 86.9908,0.5602 C86.8348,0.6902 87.1178,0.8882 86.8058,1.0662 C86.5988,0.9662 86.1828,1.1782 86.1088,0.9132 C86.7548,1.0022 86.0328,0.6472 86.5778,0.6052 C86.4728,0.6362 86.3448,0.6352 86.1898,0.5992 C86.1668,0.5702 86.2108,0.5442 86.2528,0.5292 C85.6318,0.2902 85.9738,0.8292 85.3358,0.8242 C85.4138,0.6732 85.1808,0.5372 85.0778,0.5692 C85.3358,0.5732 85.2058,0.8222 84.9728,0.9392 C84.5598,0.8222 84.5288,1.0292 84.3138,1.0172 L84.5598,1.0712 C84.4798,1.2252 84.2748,1.2062 83.9908,1.2572 C83.9638,1.1372 84.2478,1.1732 84.1448,1.1212 C83.8338,1.3952 83.4228,0.8442 82.9848,1.0302 C82.7778,0.9252 82.9588,0.7372 82.7768,0.6652 C82.2858,0.8682 82.2348,0.4552 81.7188,0.6322 C81.8738,0.8422 81.8978,0.7882 81.5368,1.0052 L82.3888,0.8362 L81.8478,1.1572 C82.1058,1.1552 82.3888,1.0092 82.5448,1.0452 C82.2868,1.2202 82.3128,1.1702 82.4408,1.3412 C82.0798,1.0322 81.7458,1.5452 81.3318,1.3422 L81.3308,0.8122 C80.7108,0.5872 80.2468,1.1092 79.4458,0.9952 L79.7048,1.0822 C79.6038,1.2992 79.2138,1.1252 78.9588,1.2192 C78.9768,1.0362 78.8138,0.9742 78.6998,0.8642 C78.7178,0.9992 78.1158,0.8652 78.0548,1.2322 L77.6908,1.0002 C77.0448,0.9162 76.9738,1.5442 76.3528,1.4992 C76.5328,1.2922 76.2478,1.1682 76.6568,1.0132 C76.4518,1.0172 76.2638,0.9882 76.2638,1.1162 C76.1388,1.0032 75.7018,1.3822 75.5048,1.2102 C75.4198,1.2952 75.3978,1.4912 75.1658,1.4832 C75.1388,1.4452 75.1638,1.3902 75.1638,1.3902 C75.1658,1.4822 74.8058,1.5272 75.0148,1.7282 C74.3578,1.1602 73.2398,1.8252 72.6668,1.3332 C72.2188,1.4072 71.6788,1.4992 71.2698,1.5292 C71.2938,1.4702 71.2668,1.4332 71.3458,1.4502 C70.7738,1.2962 71.0218,2.0162 70.3718,1.8462 C70.0308,1.5502 70.7058,1.6622 70.4958,1.5542 C70.3798,0.9242 69.7248,1.6752 69.2768,1.3232 L69.3808,1.2812 C69.0408,1.0782 68.5858,1.5572 68.0438,1.5362 C68.0438,1.5362 68.0668,1.4792 68.0428,1.4402 C67.6888,1.7822 66.9958,1.9232 66.4818,2.0382 C66.6308,1.7792 66.7108,1.8942 66.5998,1.6432 C66.3688,1.6902 66.6878,2.0502 66.2268,2.1432 C66.0698,2.0122 65.7288,1.9082 65.6718,1.6362 L66.1078,1.6012 C65.8678,1.2582 65.5418,1.6392 65.3078,1.5882 L65.3298,1.4322 C64.6608,1.5132 64.6718,1.9042 63.9488,1.9092 L64.0298,2.0232 C63.6558,2.4292 63.6878,1.8212 63.3098,2.1272 L63.1698,1.7402 C62.9148,1.8462 62.2788,2.1602 61.8178,2.2652 C62.0658,1.9562 62.6028,1.7772 62.9308,1.5902 C62.6738,1.5972 62.0568,1.6612 61.9328,1.8662 C62.0348,1.8222 62.1608,1.7182 62.2658,1.7722 C61.9678,2.1002 61.5598,2.2782 61.0468,2.3022 C61.0958,1.5322 59.6978,2.1892 59.2918,1.6182 C58.3998,1.9552 57.4818,1.6082 56.4268,1.7182 C56.8378,2.2872 56.1188,1.7542 56.2208,2.3582 C55.9758,2.4122 55.8828,2.4082 55.8578,2.3702 L55.0888,2.0532 C54.8998,1.8872 55.3138,1.9052 55.2828,1.7702 C54.7408,1.7572 55.0408,1.5272 54.6738,1.3882 C54.7608,1.6002 54.5058,1.7112 54.1918,1.6482 L54.6428,1.9002 C53.9098,2.2692 53.9588,1.4332 53.2188,1.8012 L53.4468,1.5952 C53.0638,1.7282 52.0078,1.6882 51.6578,2.2022 C51.5838,2.1372 51.4818,1.9802 51.6508,1.9242 C50.7138,1.9242 49.6118,2.5912 48.8678,2.3522 L48.9288,2.2022 C48.7578,2.2572 48.6448,2.4972 48.4178,2.3682 C48.4248,2.3072 48.4768,2.2182 48.3958,2.2162 C48.3068,2.2732 47.9528,2.5042 47.7168,2.4382 L47.9018,2.2612 C46.9788,2.1442 46.5358,2.7622 45.7808,2.9172 C45.7528,2.4982 45.0278,2.4192 44.6658,2.3812 L44.6748,2.3212 C43.6128,2.3552 42.9028,2.8092 41.9368,3.0562 C41.2968,2.6712 39.8658,3.0572 38.8708,2.9072 C39.0258,2.9652 38.8708,3.2162 38.7008,3.2712 C38.4658,3.2132 38.0898,3.5992 38.0968,3.2382 L38.1798,3.2382 C37.9778,2.9032 37.5148,3.0412 37.1468,3.0662 L37.1248,3.5342 C36.1078,2.9582 34.6268,4.0022 34.0528,3.4712 C33.8308,3.6062 33.5438,3.6352 33.3228,3.7672 L33.3148,3.5322 C32.6688,3.5392 32.3458,3.5462 31.5558,3.6842 L31.7048,3.5042 C31.2558,3.5392 31.1968,4.2212 30.7848,4.2732 L30.6318,3.9512 C29.8508,4.0362 29.0348,3.8372 28.2908,4.2132 C28.2988,4.1642 28.3128,4.0702 28.4378,4.0432 C28.0698,4.0732 26.9988,3.9882 27.1708,4.4012 C27.1368,4.1242 26.3628,4.4602 25.9528,4.6252 L25.9998,4.4172 C25.6678,4.7142 25.6628,4.7832 25.1738,4.9062 C25.0538,4.8932 25.0558,4.7612 25.2168,4.7942 C24.8138,4.7352 24.9288,5.0122 24.4428,4.9592 L24.6078,4.8172 C24.2038,4.8462 24.2418,4.9092 24.0328,5.0742 C23.7868,5.1772 23.2638,5.1072 23.1868,4.9472 C23.1428,5.0552 22.9348,5.2162 22.6928,5.1932 C22.6548,5.1342 22.7378,5.0862 22.7788,5.0622 C22.0938,5.0142 21.7968,5.3802 21.3158,5.2562 C21.3008,5.1992 21.2668,5.1732 21.2268,5.1602 C21.7638,5.1032 22.1958,5.0652 22.1568,5.0822 C22.1398,4.9152 21.7048,4.9392 22.0268,4.6682 C21.6918,4.8392 21.1248,5.1732 20.6948,5.1452 C20.6738,5.1332 20.6518,5.1202 20.6348,5.0962 L20.6758,5.0742 C20.5768,5.0702 20.4918,5.0952 20.4118,5.1322 C20.2748,5.1212 20.1868,5.1132 20.0578,5.1262 C19.9958,5.0042 19.5558,5.1182 19.3398,5.1372 C19.3738,5.3022 19.0888,5.3072 19.3668,5.4142 C19.3308,5.4062 19.4048,5.3882 19.5488,5.3662 C19.5798,5.3572 19.6178,5.3502 19.6388,5.3382 L19.6248,5.3552 C19.7658,5.3362 19.9508,5.3102 20.1598,5.2822 C19.9988,5.3872 19.8278,5.4792 19.5798,5.4132 C19.4788,5.5332 19.3688,5.6552 19.3048,5.7132 C18.9858,5.5122 18.4058,5.4602 18.3128,5.3342 C17.6638,5.5062 16.7688,5.5942 16.3838,5.9182 C16.1998,5.9732 16.1598,5.8642 16.0858,5.8302 C16.1908,5.7892 16.3198,5.7782 16.3748,5.7312 C16.0078,5.8462 15.2688,5.8952 15.1978,6.0872 C14.7188,6.0612 15.4458,5.8872 14.8018,5.9962 L14.8828,5.9292 C13.5818,5.8332 12.8528,6.5922 11.4068,6.4452 C11.5068,6.4512 11.5558,6.4532 11.5798,6.4752 C9.9568,6.5662 8.2698,6.9732 6.6668,7.0352 C6.2128,7.0722 6.1708,7.1362 5.8988,7.2122 L5.7938,7.1582 L5.3318,7.2942 C4.6688,7.4192 4.1608,7.3182 3.3258,7.5142 L3.4368,7.5292 C3.1338,7.5652 2.4778,7.6712 2.5258,7.6382 C2.4948,7.6482 2.4288,7.6742 2.3088,7.6792 L2.2978,7.6662 L1.5558,7.7902 C0.9768,7.8642 1.6398,7.7352 0.7998,7.8682 C0.5558,7.9082 0.1478,7.9772 0.0278,7.9972 C0.1218,7.9852 0.2448,7.9692 0.3608,7.9532 L0.0738,7.9912 C0.0218,8.0032 -0.2002,8.0102 0.5098,7.9642 L1.0018,7.9172 L1.1618,7.9152 L0.7458,7.9462 C0.9828,7.9362 1.1318,7.9212 1.2988,7.9002 C1.3388,7.9042 1.4088,7.9042 1.5078,7.9002 L1.9878,7.8312 C2.0488,7.8422 1.7738,7.8752 2.0998,7.8622 C2.3248,7.8262 1.8788,7.8452 2.2528,7.8012 C2.4908,7.8002 2.4248,7.8252 2.6988,7.7832 C2.7388,7.7932 2.6808,7.8052 2.5718,7.8202 C2.8168,7.7852 3.2238,7.7642 3.3478,7.7202 C3.5978,7.7402 4.1798,7.6442 4.1638,7.7172 C4.2388,7.6962 4.5918,7.6262 4.8168,7.6032 C4.4148,7.7342 5.6658,7.5422 5.5688,7.6692 C5.8648,7.5472 6.6718,7.5462 7.2068,7.4372 C7.1778,7.4492 7.1198,7.4732 7.0708,7.4702 C7.3778,7.4572 7.4708,7.4912 7.6698,7.5032 C7.6968,7.3922 8.1698,7.3302 8.4178,7.2342 C8.8048,7.3202 8.2058,7.3922 8.3358,7.4912 C8.3058,7.3982 8.9748,7.3482 8.8388,7.2742 C9.1338,7.3262 9.0898,7.2902 9.2488,7.3862 C9.2808,7.2202 9.5128,7.3402 9.7378,7.2192 C10.1618,7.2702 9.8618,7.3712 10.3108,7.2852 C10.5338,7.3252 10.1358,7.4132 10.1358,7.4132" id="Fill-61"></path>
            </g>
            <path d="M19.5485,5.3662 C19.5275,5.3722 19.5175,5.3812 19.4895,5.3852 C19.5225,5.3952 19.5515,5.4042 19.5795,5.4132 L19.6245,5.3552 L19.5485,5.3662 Z" id="Fill-64"></path>
            <path d="M102.1066,1.4258 L102.0866,1.4218 C102.1026,1.4278 102.1186,1.4348 102.1276,1.4448 C102.1156,1.4368 102.1156,1.4318 102.1066,1.4258" id="Fill-66"></path>
            <polygon id="Fill-68" points="34.4049 5.5859 34.3989 5.5249 34.3239 5.5839"></polygon>
            <path d="M107.1124,2.0732 C107.1214,2.0842 107.1384,2.0952 107.1754,2.1062 C107.1744,2.0972 107.1454,2.0862 107.1124,2.0732" id="Fill-70"></path>
            <path d="M109.2794,2.1377 L109.5844,2.1797 C109.4524,2.1577 109.3554,2.1447 109.2794,2.1377" id="Fill-72"></path>
            <path d="M110.9445,2.2114 C110.9655,2.1954 110.9715,2.1834 110.9775,2.1714 L110.9745,2.1714 L110.9445,2.2114 Z" id="Fill-74"></path>
            <path d="M84.4621,2.6391 C84.4401,2.6411 84.4181,2.6451 84.3981,2.6521 C84.2471,2.7031 84.3511,2.6811 84.4621,2.6391" id="Fill-76"></path>
            <path d="M92.3361,1.9116 C92.2521,1.9516 92.1701,1.9916 92.0811,2.0176 C92.2231,2.0306 92.3311,2.0316 92.3361,1.9116" id="Fill-78"></path>
            <polygon id="Fill-80" points="75.6818 3.2973 75.6828 3.2933 75.6268 3.2953"></polygon>
            <path d="M91.716,2.0224 C91.857,2.0624 91.974,2.0494 92.081,2.0174 C91.968,2.0054 91.831,1.9874 91.716,2.0224" id="Fill-82"></path>
            <path d="M118.1622,2.5132 L118.2422,2.5162 C118.2422,2.5162 118.2472,2.5142 118.2532,2.5132 L118.1622,2.5132 Z" id="Fill-84"></path>
            <path d="M118.2531,2.5132 L118.3431,2.5132 C118.3021,2.5122 118.2661,2.5112 118.2531,2.5132" id="Fill-86"></path>
            <path d="M118.5314,2.5156 L118.3434,2.5136 C118.4074,2.5156 118.4864,2.5196 118.5314,2.5156" id="Fill-88"></path>
            <path d="M115.9572,2.4131 L115.9312,2.4301 C115.9442,2.4261 115.9532,2.4211 115.9572,2.4131" id="Fill-90"></path>
            <path d="M115.2872,2.3906 C115.4452,2.4026 115.6842,2.4466 115.9082,2.4426 L115.9312,2.4296 C115.8232,2.4526 115.4392,2.3666 115.2872,2.3906" id="Fill-92"></path>
            <path d="M112.5099,1.9135 L113.0699,1.9825 C112.9739,1.9455 112.8469,1.8935 113.1019,1.9105 C112.4009,1.7575 113.2429,1.9875 112.5099,1.9135" id="Fill-94"></path>
            <path d="M110.7726,1.7387 C111.0756,1.7387 110.7716,1.6857 110.7886,1.6657 C110.5946,1.6877 110.5476,1.6947 110.7726,1.7387" id="Fill-96"></path>
            <path d="M98.173,1.2173 L98.204,1.0523 C97.972,1.0703 98.201,1.1163 98.173,1.2173" id="Fill-98"></path>
            <polygon id="Fill-100" points="95.7579 2.0879 95.9849 2.1959 96.0929 2.0339"></polygon>
            <g id="Group-104" transform="translate(93.000000, 0.000000)">
                <polygon id="Fill-102" points="1.338 0.7841 1.44 0.7611 1.051 0.8171"></polygon>
            </g>
            <path d="M73.1447,1.0263 L73.2277,1.3263 C73.3817,1.2683 73.4027,0.9273 73.1447,1.0263" id="Fill-105"></path>
            <path d="M64.0216,1.7295 C63.9146,1.5775 63.6526,1.4875 63.5006,1.6495 C63.7086,1.6615 63.9186,1.7745 64.0216,1.7295" id="Fill-107"></path>
            <polygon id="Fill-109" points="36.6393 3.2295 36.8143 3.1205 36.4763 3.2295"></polygon>
        </g>
    </g>
</svg>